# xmcd CD database file
#
# Track frame offsets:
#	150
#	18503
#	38078
#	55390
#	71313
#	90617
#	107185
#	126048
#	143339
#	158706
#	176983
#	197671
#	217286
#	234812
#	252630
#
# Disc length: 3571 seconds
#
# Revision: 1
# Processed by: cddbd v1.5.2PL0 Copyright (c) Steve Scherf et al.
# Submitted via: CDex 1.70beta2
#
DISCID=d20df10f
DTITLE=Fly to the Sky - Transition
DYEAR=2006
DGENRE=R&B
TTITLE0=Be with you
TTITLE1=피
TTITLE2=남자답게
TTITLE3=노랑나비
TTITLE4=빌고 또 빌어도
TTITLE5=하루가 가...
TTITLE6=사랑해요 우리
TTITLE7=다시 돌아온 너에게
TTITLE8=The girl is mine
TTITLE9=폭풍속에 내 이름 불러주길
TTITLE10=Question
TTITLE11=심장
TTITLE12=환상
TTITLE13=Hot and Cool
TTITLE14=When I say
EXTD=YEAR: 2006
EXTT0=
EXTT1=
EXTT2=
EXTT3=
EXTT4=
EXTT5=
EXTT6=
EXTT7=
EXTT8=
EXTT9=
EXTT10=
EXTT11=
EXTT12=
EXTT13=
EXTT14=
PLAYORDER=
